<svg preserveAspectRatio="none" overflow="visible" style="display: block;" width="339" height="387" viewBox="0 0 339 387" fill="none" xmlns="http://www.w3.org/2000/svg">
<g id="white-leaves 2" clip-path="url(#clip0_0_133)">
<path id="Vector" d="M5.15728 387H0L1.18221 384.971L20.6172 358.714C33.1335 341.803 39.6516 327.973 43.4243 307.208C43.6742 308.898 43.5076 310.468 43.4283 312.062C43.1744 317.1 42.6428 321.504 41.2146 326.578C41.0678 326.642 41.409 326.494 41.6907 326.371C55.4884 303.119 68.088 279.432 78.7874 254.586C81.4731 248.348 84.0954 242.477 86.1663 236.053C88.4474 228.978 88.8798 221.441 89.3717 214.068L89.332 207.794L89.5661 208.424L90.3913 214.534L91.2521 224.247L107.958 180.613L122.216 142.554C123.445 139.274 123.049 135.296 123.592 131.892C124.473 126.36 124.068 121.155 123.929 115.491L125.08 121.051C125.885 124.945 126.163 128.68 126.23 132.861L136.68 109.393C140.437 100.956 144.939 93.2596 149.672 85.3282C149.149 78.6563 148.625 72.4068 148.744 65.7708C149.026 50.5736 154.623 36.7674 164.648 25.496C170.928 18.4375 178.037 12.4192 186.372 7.90748L200.999 0L198.012 8.43756C195.084 19.3303 196.06 30.2828 194.068 41.5422C191.839 54.1407 185.21 64.9696 175.078 72.6619C171.741 75.1968 168.377 77.2932 164.803 79.4654L153.627 86.2529C157.23 70.4618 163.502 55.6154 172.277 41.853C168.766 45.3803 166.084 49.2304 163.502 53.507C157.634 63.22 153.128 73.5985 150.18 84.3039C150.799 84.3119 151.208 84.3238 151.223 84.3318C151.235 84.3358 150.874 84.8938 150.807 85.0014L140.476 105.268C135.145 116.297 130.491 127.269 126.215 138.775L116.432 165.081C120.292 160.88 124.167 157.615 128.484 154.168L134.692 149.206C135.03 148.935 135.95 148.839 136.501 148.919C142.682 143.761 149.053 138.763 156.44 135.284L162.708 132.335C149.43 135.467 136.009 144.088 126.695 154.068C126.397 154.73 126.238 154.658 126.27 154.068C135.327 135.049 147.213 119.652 167.889 113.658C176.038 111.299 184.365 110.378 192.811 111.621L208.251 113.889C202.36 116.894 197.683 120.473 193.87 125.432L185.92 135.774C182.655 140.019 179.426 143.981 175.375 147.496C164.525 156.91 153.096 157.831 139.255 157.699C134.728 157.655 130.487 158.106 126.155 158.903C127.194 157.755 128.178 156.846 128.821 155.639C122.025 161.573 117.023 168.831 112.044 176.471C103.328 200.525 94.7393 224.434 84.6667 247.993L78.6684 262.031L83.7661 257.495L88.86 253.458C93.9339 248.683 98.8452 244.251 104.431 239.931C97.0402 243.797 90.7245 248.838 84.8531 254.61L83.4686 256.244C83.1869 256.578 83.0322 256.626 83.0957 256.148C86.9359 243.438 92.3828 232.206 104.07 225.73C109.025 222.984 114.024 220.827 119.581 219.759L135.486 216.698C132.887 220.178 130.864 223.219 128.956 226.802L122.597 238.747C119.213 244.331 114.884 249.093 109.315 252.469C100.63 257.73 91.6885 257.3 82.6395 261.011C78.8548 264.773 75.9469 269.46 72.92 274.163C61.3359 299.073 47.9191 322.68 33.316 345.837L32.9074 346.602C32.8519 346.701 33.3279 346.498 33.447 346.379C53.3303 326.805 74.975 309.352 98.5675 294.346C114.444 284.247 130.686 275.148 147.308 266.399C151.811 262.92 155.516 259.062 159.189 254.805L163.906 249.452C161.903 253.908 159.423 257.507 156.619 261.557L166.862 256.85C177.918 251.768 188.979 247.479 200.543 243.801L208.731 237.587C213.646 233.856 217.518 229.209 221.831 224.877L222.449 225.606L230.646 214.969L240.369 203.502C230.519 211.609 222.239 220.979 214.606 231.238L217.419 218.795C218.958 211.979 221.347 205.618 224.885 199.592C228.003 194.287 232.181 190.007 237.279 186.571C243.364 182.47 249.886 179.453 257.031 177.731L274.978 173.406C272.622 177.504 270.849 181.525 269.075 185.838L264.2 197.683C259.324 208.245 251.548 216.551 241.373 222.167C234.216 226.116 226.809 228.803 219.145 231.728C218.411 232.007 217.709 232.151 217.137 231.796L208.826 241.242L232.915 235.997C240.801 234.885 248.319 233.972 256.234 234.028C263.021 230.66 269.67 227.878 276.97 225.997C303.669 219.134 322.239 232.689 339 252.892C333.16 251.592 327.587 251.692 321.719 252.681L305.085 255.486C295.905 256.594 287.05 255.287 278.854 251.138L266.31 243.817L255.42 237.467C269.452 235.231 282.865 236.69 296.417 239.931C284.511 234.359 270.194 232.904 257.321 234.056L263.993 234.869L241.147 236.654C226.861 238.516 213.289 242.095 199.309 246.75L205.073 248.336C214.186 246.547 223.267 246.587 232.228 248.998C251.675 254.231 261.661 271.405 266.965 290.233C262.692 287.487 258.217 286.108 253.334 285.076L237.31 281.688C230.356 279.747 224.207 276.275 219.847 270.56L212.964 261.541C210.167 257.878 207.6 254.382 204.197 251.038C215.717 252.521 225.675 257.268 235.339 263.561C228.341 256.3 219.089 251.887 210.02 249.368C210.861 250.09 210.754 250.433 209.882 250.345C203.459 249.269 196.639 247.73 190.284 249.839C178.739 253.669 168.052 258.87 157.142 264.315C140.246 272.74 124.171 281.987 108.081 291.963L120.327 291.572C112.123 293.342 104.685 295.016 97.2862 298.695C78.2955 311.297 60.5544 325.362 43.7655 341.082L54.0404 339.683C48.0579 341.819 42.742 343.816 37.5172 346.933L22.2279 362.763L5.16125 387.012L5.15728 387Z" fill="white" fill-opacity="0.25"/>
<path id="Vector_2" d="M43.1783 260.17C45.1103 277.786 44.6105 294.836 40.7068 312.138C38.8859 307.435 36.6127 303.083 33.9984 298.639C24.8502 283.992 17.7172 270.568 18.356 252.688C18.9629 235.73 28.1072 216.91 35.3591 201.075C39.8975 213.498 47.1931 223.418 52.4257 235.502C61.4192 256.272 59.8681 274.243 52.275 295.211C50.0693 300.859 48.0262 306.295 44.7374 311.441C47.8199 294.075 47.7128 276.917 43.1744 260.173L43.1783 260.17Z" fill="white" fill-opacity="0.25"/>
<path id="Vector_3" d="M78.958 167.882C82.1357 176.547 84.8333 184.487 86.1028 193.299C87.1541 200.604 87.5191 207.663 87.4238 215.076C79.2912 204.981 69.6431 199.624 62.5181 188.719C51.4697 171.812 54.8457 156.774 57.7774 138.15C58.7057 132.255 58.8922 126.735 58.3169 120.485C71.5989 130.752 83.5956 141.585 90.7523 156.687C94.533 164.666 96.6157 172.908 96.5602 181.804C96.4927 192.785 94.9257 203.59 91.1173 214.263C90.6928 196.926 87.3723 182.179 78.9619 167.878L78.958 167.882Z" fill="white" fill-opacity="0.25"/>
<path id="Vector_4" d="M112.349 84.1365C118.165 96.8227 122.097 110.234 122.906 124.339C115.801 117.492 107.763 113.371 100.734 106.061C87.9158 92.7375 88.1617 78.4689 87.2493 61.3866C86.8724 54.3519 85.599 47.959 82.4491 41.315C94.4457 46.6517 106.45 52.8852 115.241 62.363C123.965 71.9166 128.916 83.7937 129.305 96.8427C129.495 105.85 128.539 114.431 126.008 123.291C124.334 109.485 120.3 95.926 112.349 84.1325V84.1365Z" fill="white" fill-opacity="0.25"/>
<path id="Vector_5" d="M117.253 294.645C125.699 292.616 133.784 290.982 142.178 290.835L154.361 290.616C155.948 290.588 157.666 291.225 159.09 290.751C150.319 289.037 141.786 288.42 132.895 288.874L118.026 290.835C129.944 282.126 144.67 275.375 159.479 275.626C175.383 275.897 190.8 284.801 203.844 294.171C199.619 294.928 195.917 295.865 192.117 297.443L175.816 304.203C168.54 306.602 161.288 308.053 153.62 307.539C146.55 306.893 140.084 304.693 133.653 301.732L117.253 294.645Z" fill="white" fill-opacity="0.25"/>
<path id="Vector_6" d="M78.2161 350.942C67.5287 349.926 58.8406 344.964 48.7085 343.242C59.8681 338.658 71.3569 336.789 83.3496 336.67C81.3343 335.988 79.2396 336.04 76.9506 335.964C67.846 335.661 59.1699 336.941 50.2835 339.535C56.3453 333.86 63.0934 329.591 70.6389 326.466C83.9645 320.946 97.2346 322.879 110.33 328.379L124.227 335.023C120.276 336.179 116.562 337.706 112.794 339.691L99.5355 346.677C92.7398 349.611 85.8489 351.384 78.2241 350.946L78.2161 350.942Z" fill="white" fill-opacity="0.25"/>
<path id="Vector_7" d="M165.89 242.987L159.209 254.028L158.364 243.49L157.031 231.971C156.702 222.956 159.181 214.662 164.394 207.392L173.765 196.093L182.592 185.14L184.016 193.335C184.9 198.416 185.952 203.235 186.337 208.428C187.174 219.715 184.167 230.612 177.399 239.612C173.043 245.407 167.996 250.528 162.145 254.59C167.981 244.542 172.392 234.713 174.094 223.526C171.856 230.222 169.325 236.507 165.886 242.984L165.89 242.987Z" fill="white" fill-opacity="0.25"/>
</g>
<defs>
<clipPath id="clip0_0_133">
<rect width="339" height="387" fill="white"/>
</clipPath>
</defs>
</svg>
