<svg id="SR_Logo" data-name="SR Logo" xmlns="http://www.w3.org/2000/svg" width="176.42" height="41.83" viewBox="0 0 176.42 41.83">
  <g id="Layer_1" data-name="Layer 1">
    <path id="Path_164" data-name="Path 164" d="M43.63,17.38h.86c0,2.91,1.85,3.62,3.23,3.62,1.2,0,2.43-.6,2.43-1.95,0-3.47-6.88-3.36-6.88-8.1,0-2.38,1.76-4.21,5.23-4.21a28,28,0,0,1,4,.43l-.73,3.69H50.9c0-1.69-.6-3-2.56-3-1.49,0-2.42.75-2.42,1.93,0,3.52,6.87,3.12,6.87,8.06,0,2.86-2.31,4.27-5.16,4.27-2,0-4.58-.63-4.65-2.27a9,9,0,0,1,.65-2.47Z" fill="#334055"/>
    <path id="Path_165" data-name="Path 165" d="M57.57,21.09c.94-.11,1.5-.64,1.5-1.44V8.17H57.15c-1.42,0-2.09.44-3,2.69H53.3l.69-4A7.5,7.5,0,0,0,55.48,7h11A9.58,9.58,0,0,0,68,6.88l-.69,4h-.87c0-2.25-.73-2.69-2.4-2.69H62.31l-.26.26v11.2a6.71,6.71,0,0,1-.11,1.2l2.22.2-.09.73-6.5.14Z" fill="#334055"/>
    <path id="Path_166" data-name="Path 166" d="M66.27,21.09a1.66,1.66,0,0,0,1.49-1L72.92,7.12l1.36-.29,4.87,12.66c.38,1,.71,1.54,1.56,1.65l-.09.71h-.91c-1,0-4.34.09-4.34.09v-.87c.6,0,1.14-.22.89-.89l-1.05-2.87H70.48l-.38.27-1.25,3.27,1.92.24-.14.76H66.27Zm6.56-10.63-2.15,5.63h4.11l-1.4-3.92c-.18-.47-.39-1.27-.56-1.71Z" fill="#334055"/>
    <path id="Path_167" data-name="Path 167" d="M81.55,21.09c1-.11,1.61-.57,1.61-1.38V10.15a2.111,2.111,0,0,0-1.81-2.47V7H82c1.09,0,2.91-.09,2.91-.09a5.25,5.25,0,0,0,.87,1.16l7.79,8.21c.29.31.64.73.91,1.07V9.44c0-1,0-1.52-1.8-1.7V7h4.49l.11.42a2.22,2.22,0,0,0-1.53,2.25V22h-.94L85.34,11.82a11.32,11.32,0,0,1-.92-1.09v9a6.75,6.75,0,0,1-.11,1.21l2,.13-.08.73-4.68.14Z" fill="#334055"/>
    <path id="Path_168" data-name="Path 168" d="M98.61,17.38h.87c0,2.91,1.85,3.62,3.23,3.62,1.2,0,2.42-.6,2.42-1.95,0-3.47-6.87-3.36-6.87-8.1,0-2.38,1.76-4.21,5.23-4.21a28,28,0,0,1,4,.43l-.74,3.69h-.86c0-1.69-.6-3-2.56-3-1.49,0-2.43.75-2.43,1.93,0,3.52,6.88,3.12,6.88,8.06,0,2.86-2.32,4.27-5.16,4.27-2,0-4.59-.63-4.65-2.27a8.7,8.7,0,0,1,.64-2.47Z" fill="#334055"/>
    <path id="Path_169" data-name="Path 169" d="M109.45,21.09c.93-.11,1.49-.57,1.49-1.38V9.3c0-1.07-.11-1.29-1.72-1.62V7h5.72c4.07,0,5.65,1.49,5.65,3.25,0,2.11-2.33,3.38-3,3.71,1.38.29,4,1.16,4,3.7,0,2.33-2.27,4.18-6.23,4.18h-2c-1.49,0-3.8.07-3.8.07Zm5.58-.4c2.12,0,3.23-1.22,3.23-2.69,0-1.65-1.25-3.2-3.72-3.2h-.35l-.27.26v4.41a6.94,6.94,0,0,1-.11,1.22Zm.69-7c.56,0,1.67-1,1.67-2.85a2.32,2.32,0,0,0-2.56-2.62h-.64l-.27.26v5.21Z" fill="#334055"/>
    <path id="Path_170" data-name="Path 170" d="M122.62,21.09c.93-.11,1.49-.57,1.49-1.38V9.3c0-1.07-.11-1.29-1.72-1.62V7h9.68c.91,0,1.71-.09,1.71-.09l-.69,3.94h-.86c.11-2.29-.63-2.69-2.41-2.69h-2.47l-.26.26V13.7h3.71l.18-1.29.94-.14v4.25h-1.16V14.86h-3.41l-.26.27v4.32a7.479,7.479,0,0,1-.11,1.24h3.09c1.91,0,2.18-.29,3.29-2.62h.87l-.82,3.78h-7c-1.49,0-3.8.07-3.8.07Z" fill="#334055"/>
    <path id="Path_171" data-name="Path 171" d="M135.72,21.09c.91-.11,1.49-.62,1.49-1.38V9.3c0-1.07-.11-1.29-1.71-1.62V7h6.29c3.92,0,5.43,1.74,5.43,3.58s-1.58,3.12-2.74,3.83v.38l3.23,4.85c.87,1.3,1.29,1.36,1.69,1.36h.25l-.09.82h-4.28l-.08-.09a10.18,10.18,0,0,0-1.27-2.42l-2.52-3.81h-.95l-.27.27v3.91a5.76,5.76,0,0,1-.11,1.14l2,.2-.09.73-6.27.14Zm6.09-6.72c1,0,2.14-1,2.14-3.09,0-1.78-.87-3.11-2.94-3.11h-.55l-.27.26v5.94Z" fill="#334055"/>
    <path id="Path_172" data-name="Path 172" d="M150.18,21.09c.91-.11,1.49-.62,1.49-1.38V9.3c0-1.07-.11-1.29-1.72-1.62V7h6.3c3.92,0,5.43,1.74,5.43,3.58s-1.58,3.12-2.74,3.83v.38l3.23,4.85c.87,1.29,1.29,1.31,1.69,1.35h.24l-.09.82h-4.27l-.09-.09a10.33,10.33,0,0,0-1.26-2.42l-2.52-3.81h-1l-.27.27v3.91a5.76,5.76,0,0,1-.11,1.14l2,.2-.09.73-6.27.14Zm6.09-6.72c1,0,2.14-1,2.14-3.09,0-1.78-.87-3.11-2.94-3.11h-.55l-.27.26v5.94Z" fill="#334055"/>
    <path id="Path_173" data-name="Path 173" d="M166.7,21.09c.94-.11,1.49-.64,1.49-1.44V15.29L164.1,8.66a1.94,1.94,0,0,0-1.18-1V7h1.18c2,0,3.16-.09,3.16-.09l.09.09a1.88,1.88,0,0,0,0,1.6l2.45,4.14c.2.36.45.85.62,1.25l3-4.94c.35-.58.24-1.2-.89-1.38V7h3.78l.11.42a3,3,0,0,0-1.33,1.27l-4,6.32v4.63a6.17,6.17,0,0,1-.12,1.2l1.9.2-.09.73-6.17.14Z" fill="#334055"/>
    <path id="Path_174" data-name="Path 174" d="M63.37,26.67h3.81a3.36,3.36,0,0,1,2.43.84,2.61,2.61,0,0,1,.72,1.91h0A2.6,2.6,0,0,1,68.54,32l2,3H68.43l-1.78-2.66H65.21V35H63.37Zm3.69,4c.9,0,1.41-.48,1.41-1.18h0c0-.79-.55-1.2-1.44-1.2H65.21v2.4Z" fill="#334055"/>
    <path id="Path_175" data-name="Path 175" d="M75.79,26.67h6.29V28.3H77.61V30h3.93v1.63H77.61v1.75h4.53V35H75.79Z" fill="#334055"/>
    <path id="Path_176" data-name="Path 176" d="M87,33.79l1.08-1.3a3.83,3.83,0,0,0,2.49,1c.75,0,1.2-.29,1.2-.78h0c0-.46-.28-.7-1.68-1.06-1.68-.42-2.76-.89-2.76-2.54h0c0-1.51,1.21-2.51,2.92-2.51a4.8,4.8,0,0,1,3.09,1.06l-1,1.38a3.92,3.92,0,0,0-2.17-.82c-.7,0-1.07.32-1.07.73h0c0,.55.36.73,1.8,1.09,1.69.45,2.64,1,2.64,2.51h0c0,1.65-1.26,2.58-3.06,2.58A5.3,5.3,0,0,1,87,33.79Z" fill="#334055"/>
    <path id="Path_177" data-name="Path 177" d="M99,26.67h6.29V28.3h-4.47V30h3.93v1.63h-3.93v1.75h4.53V35H99Z" fill="#334055"/>
    <path id="Path_178" data-name="Path 178" d="M113.64,26.61h1.7L118.91,35H117l-.76-1.87H112.7L111.94,35h-1.87Zm1.93,4.91-1.1-2.71-1.11,2.71Z" fill="#334055"/>
    <path id="Path_179" data-name="Path 179" d="M124,26.67h3.81a3.36,3.36,0,0,1,2.43.84,2.61,2.61,0,0,1,.72,1.91h0a2.6,2.6,0,0,1-1.8,2.58l2,3h-2.15l-1.78-2.66h-1.44V35H124Zm3.69,4c.9,0,1.41-.48,1.41-1.18h0c0-.79-.55-1.2-1.44-1.2h-1.82v2.4Z" fill="#334055"/>
    <path id="Path_180" data-name="Path 180" d="M136,30.86h0a4.24,4.24,0,0,1,4.35-4.31,4.29,4.29,0,0,1,3.28,1.28l-1.16,1.35a3,3,0,0,0-2.13-.94A2.46,2.46,0,0,0,138,30.81h0a2.48,2.48,0,0,0,2.42,2.62,3,3,0,0,0,2.19-1l1.16,1.18a4.39,4.39,0,0,1-7.69-2.8Z" fill="#334055"/>
    <path id="Path_181" data-name="Path 181" d="M149,26.67h1.83V30h3.39V26.7h1.83V35h-1.83V31.66h-3.39V35H149Z" fill="#334055"/>
    <path id="Path_182" data-name="Path 182" d="M27.63,26.14V15.93l9.05-5V21.14Z" fill="#334055" stroke="#fff" stroke-linejoin="round" stroke-width="1"/>
    <path id="Path_183" data-name="Path 183" d="M27.63,15.93l-9.04-5.22,9.04-4.99,9.05,5.21Z" fill="#334055" stroke="#fff" stroke-linejoin="round" stroke-width="1"/>
    <path id="Path_184" data-name="Path 184" d="M9.54,25.9.5,20.68V10.47L9.54,15.7Z" fill="#334055" stroke="#fff" stroke-linejoin="round" stroke-width="1"/>
    <path id="Path_185" data-name="Path 185" d="M9.54,15.7.5,10.47,9.54,5.49l9.05,5.22Z" fill="#334055" stroke="#fff" stroke-linejoin="round" stroke-width="1"/>
    <path id="Path_186" data-name="Path 186" d="M18.59,10.71,9.54,5.49,18.59.5l9.04,5.22Z" fill="#334055" stroke="#fff" stroke-linejoin="round" stroke-width="1"/>
    <path id="Path_187" data-name="Path 187" d="M18.59,41.33,9.54,36.11V25.9l9.05,5.22Z" fill="#334055" stroke="#fff" stroke-linejoin="round" stroke-width="1"/>
    <path id="Path_188" data-name="Path 188" d="M9.54,36.11.5,30.89V20.68L9.54,25.9Z" fill="#334055" stroke="#fff" stroke-linejoin="round" stroke-width="1"/>
    <path id="Path_189" data-name="Path 189" d="M18.59,41.33V31.12l9.04-4.98v10.2Z" fill="#334055" stroke="#fff" stroke-linejoin="round" stroke-width="1"/>
    <path id="Path_190" data-name="Path 190" d="M27.63,36.34V26.14l9.05-5V31.35Z" fill="#334055" stroke="#fff" stroke-linejoin="round" stroke-width="1"/>
  </g>
</svg>
