<?xml version="1.0" encoding="utf-8"?>
<!-- Generator: Adobe Illustrator 25.4.1, SVG Export Plug-In . SVG Version: 6.00 Build 0)  -->
<svg version="1.1" id="Layer_1" xmlns="http://www.w3.org/2000/svg" xmlns:xlink="http://www.w3.org/1999/xlink" x="0px" y="0px"
	 viewBox="0 0 1547 394.9" style="enable-background:new 0 0 1547 394.9;" xml:space="preserve">
<style type="text/css">
	.st0{fill:none;stroke:#231F20;stroke-width:4;stroke-miterlimit:10;}
	.st1{fill:#C7E8F4;}
	.st2{fill:none;stroke:#85CDE8;stroke-miterlimit:10;}
	.st3{fill:#85CDE8;}
	.st4{fill:#14A0D2;}
	.st5{fill:none;stroke:#0097CF;stroke-width:2;stroke-miterlimit:10;}
	.st6{fill:#0097CF;}
	.st7{fill:#B0DFF0;}
	.st8{fill:#38AED9;}
	.st9{fill:#61BFE1;}
	.st10{fill:#66C1E2;}
	.st11{fill:#089BD0;}
	.st12{fill:#37AED9;}
	.st13{fill:#9ED8ED;}
	.st14{fill:#F2F8F9;}
	.st15{fill:#02769F;}
	.st16{fill:none;stroke:#02769F;stroke-miterlimit:10;}
	.st17{fill:#231F20;}
</style>
<path class="st0" d="M110.4,251.4"/>
<polygon class="st1" points="168.8,170.3 212.5,149.6 252.8,164.6 230.2,210.9 201.8,223.1 184.8,237 "/>
<polyline class="st1" points="145.8,170.1 96.3,149.3 59.8,156.1 79.2,206.6 100.3,214.6 124.8,231.3 145.8,170.1 "/>
<path class="st2" d="M170.8,170.3"/>
<polygon class="st3" points="183.8,199.6 189.1,188.3 193.3,176.1 214.8,173.1 225.8,186.1 221.8,199.6 201.8,207.1 "/>
<polygon class="st3" points="128.8,197.3 124.1,184.1 119.3,169.1 98.1,166.3 87.1,181.6 95.1,195.6 118.1,203.1 "/>
<polygon class="st3" points="143.8,168.8 119.8,246.6 156.2,261.3 186.6,244.1 169.1,170.1 "/>
<polygon class="st4" points="183.8,199.6 188.3,188.6 193.5,176.2 214.5,173.1 225.7,186 212.7,176.6 195.6,180.1 "/>
<polygon class="st4" points="128.6,197.2 119.2,169.1 98.2,166.3 87.2,181.6 98.8,170.1 117.3,172.1 "/>
<polyline class="st5" points="122.7,195.1 118.7,189.3 95.8,186.6 92.3,183.1 "/>
<polyline class="st5" points="190.8,197.2 195.2,193.3 217.1,191.3 221.3,187.3 "/>
<polygon class="st6" points="119.7,246.6 128.7,232.3 128.1,219.8 "/>
<polygon class="st6" points="187.3,250.3 182.5,235.8 181.7,223 186.4,236 "/>
<polygon class="st7" points="143.1,169.8 124.6,144.3 140.6,99.8 168.6,99.6 185.1,143.3 169.1,170.1 "/>
<polygon class="st8" points="95.5,118.3 86.5,89.9 55.9,34.1 36,36.9 34.2,58.9 44.4,95.8 45,121.9 60.7,153.9 "/>
<polygon class="st8" points="197.9,105.6 220.5,80.9 244.4,60.1 259.4,40.6 266.7,35.7 274.9,58.4 275.9,78.1 273.4,113.8 
	249,135.9 239.4,152.1 "/>
<polygon class="st9" points="175.8,99.8 133.8,99.6 98.8,111.6 58.8,156.1 37.3,213.6 75.8,232.2 80.3,249.2 71.8,271.2 93.8,275.7 
	112.3,302.5 115.8,326.7 124.1,319.7 149.8,381.7 185.2,323.2 192.1,328.4 198.6,306.1 222.5,273 236.3,277.5 233.3,257.7 
	230.5,236.5 271.7,221.4 252.8,163.6 210.2,114.6 "/>
<polygon class="st10" points="196.3,109.3 208.6,114.5 228.1,136.3 221.3,116.6 222.9,109.1 231.2,101.5 224.3,103.1 225.6,96.6 
	237.2,84.4 243.3,80 241.8,78.9 255.8,64.8 260.8,46.1 267.6,47.6 271.8,61.1 271.6,87.8 268.6,114.8 251.3,128.6 238.8,148.8 
	251.6,163.8 261.6,131.1 275.1,116.1 277.3,59.1 270.8,32.8 259.3,30.3 253.6,33.1 203.1,71.4 188.4,96.3 "/>
<polygon class="st10" points="87.8,124 99.7,114.6 114.6,106 111.5,84.3 80.2,50.3 57.5,30.3 38.1,33.4 34.5,36.6 32.2,59.9 
	39.8,89.9 42.2,128.6 60.1,154.7 75.5,137.5 71.2,132.3 59.2,131.9 50.2,121.3 49.5,96.9 43.2,69.9 39.8,52.9 41.5,42.3 52.8,43.1 
	57.3,60.6 75.2,78.3 80.5,99.3 86.2,109.6 "/>
<polygon class="st11" points="79.8,248.1 32.2,220.4 58.9,156.1 68.2,144.4 42,215.4 75.8,232.2 "/>
<polygon class="st1" points="123.1,241.6 88.8,225.3 94.8,245.8 124.1,269.8 "/>
<polygon class="st1" points="183.3,272.6 181.6,245.1 218.8,225.3 217.8,243.6 "/>
<polygon class="st12" points="168.8,170.3 199.2,158.9 229.7,161.9 249.2,179.4 230.2,210.9 201.8,223.1 184.8,237 "/>
<polyline class="st12" points="149.7,172.4 122.9,161.2 88.7,155.4 63.4,171.4 74.4,193.8 83,208.9 104.2,216.9 128.7,233.7 
	149.7,172.4 "/>
<path class="st2" d="M170.8,170.3"/>
<polygon class="st3" points="183.8,199.6 189.1,188.3 193.3,176.1 214.8,173.1 227.4,183.4 221.8,199.6 196.7,203.7 "/>
<polygon class="st3" points="128.8,197.3 122,182.4 117.1,172.9 98.1,166.3 87.1,181.6 95.1,195.6 116.9,200.4 "/>
<polygon class="st13" points="122.5,267.3 129.1,276.5 139.8,282.1 159.5,284.4 180.3,278 182.1,273.2 170.2,275 153.6,270.3 
	130.5,273.2 "/>
<polygon class="st3" points="143.8,168.8 119.8,246.6 156.2,261.3 186.6,244.1 169.1,170.1 "/>
<polygon class="st14" points="138.5,246.1 136,243.8 135.7,239.2 126.2,234.2 119.7,246.7 122.5,268.3 131.7,274.3 154,271 
	154.2,264.5 "/>
<polygon class="st14" points="155.2,271.3 155.2,263.4 172.8,248.6 175.4,248.1 177.9,242.4 184.7,239.4 188,250.8 189.3,260 
	182.5,274.3 170.3,275.9 "/>
<polygon class="st15" points="141.6,258.3 151.8,264.6 159.7,264.8 167.3,259.3 171.8,254.3 172.8,246.3 163.8,238.3 151.2,236.3 
	139.2,242.9 137.8,250.9 "/>
<polygon class="st4" points="183.8,199.6 188.3,188.6 193.5,176.2 213.7,170.9 227.4,183.4 212.9,175.4 195.6,180.1 "/>
<polygon class="st4" points="128.6,197.2 118.6,171.4 98.2,166.3 87.2,181.6 98.8,170.1 115.8,174.7 "/>
<polygon class="st15" points="272.3,32.8 270.8,32.9 257.1,31.8 247.9,40.7 231.4,56.6 204.5,76.6 193.9,93.4 197.8,109.6 
	175.6,99.8 194.4,72.7 229.3,48.8 255.6,27.2 "/>
<polygon class="st6" points="119.7,246.6 128.7,232.3 128.1,219.8 "/>
<polygon class="st6" points="187.3,250.3 182.5,235.8 181.7,223 186.4,236 "/>
<polygon class="st11" points="252.9,163.6 276.7,221.4 239.7,246.4 240,266 233.8,259.5 229.9,236.4 269.7,217.4 243.2,150.4 
	252.7,163.4 "/>
<polygon class="st11" points="40.6,32.3 34.9,36.8 33.2,59.8 39.7,88 43.2,129.3 60.2,154.5 57.7,159.7 40.3,130.1 36.8,89.1 
	30.3,59.6 32.3,35.6 "/>
<polygon class="st11" points="270.8,32.8 272.2,32.8 280.9,59.2 278.4,117.4 264.7,133.7 251.4,167.4 248.7,160.1 261.3,130.9 
	274.5,116.3 277.1,58.9 "/>
<polygon class="st15" points="36.7,33.9 41,33.2 57.7,30.4 80.2,50.9 111.5,84.2 114.5,106.5 133.5,100.2 126.9,85.2 61.2,23.5 "/>
<polyline class="st14" points="198.2,199.6 190.9,196.9 200.4,186.6 211.4,182.6 218.7,187.2 217.7,193.6 203.7,198.8 "/>
<polygon class="st15" points="206.9,183.9 201,186.3 201.3,188.5 202.9,192.7 206.5,195.3 208.4,191.5 207.8,186.3 "/>
<polygon class="st14" points="115,185 101.8,177.3 94.3,182.3 95.3,188.8 114.4,196.3 122.6,194.9 "/>
<polygon class="st15" points="106,180.3 111.4,182.7 111.1,184.8 109.7,189 106.4,191.7 104.7,187.9 105.2,182.7 "/>
<polygon class="st16" points="190.8,197.2 200.7,199.9 217.4,193.4 218.9,187.3 211.7,182.6 200.4,186.6 "/>
<polygon class="st16" points="122.7,195.1 114.4,196.3 95.3,188.7 94.2,182.4 101.9,177.3 115,185.1 "/>
<path class="st15" d="M200.7,200.5l-10.8-3l10.2-12.4l11.6-4.5l9.5,6l-3.4,7.3L200.7,200.5z M191.8,196.9l8.9,2.5l16-6.7l1.6-5.2
	l-6.7-4.3l-10.9,3.8L191.8,196.9z"/>
<path class="st15" d="M114.4,196.8l-0.1,0l-19.4-7.7l-2.8-7.4l9.7-6.6l13.9,8.6l8,11.8L114.4,196.8z M96.2,187.9l18.3,7.9l7.3-1.1
	l-7.1-9.2l-12.8-7.6l-7.1,4.8L96.2,187.9z"/>
<polygon class="st13" points="137.9,250.2 142.8,244.7 151.3,241.1 163.3,241.8 172.3,250.9 173.1,245.6 164.4,237.4 151.2,235.3 
	139.3,242.2 "/>
<path class="st17" d="M325.2,296.8c-5.8-1.6-11.6-8.5-11.6-17.4c0-24.1,23.9-33.3,46.7-46.4c8.5-39.5,15-81.5,22.1-112.3
	c1.1-4.5,4.5-6.5,8.3-6.5c5.8,0,12.3,4.5,12.3,10.9c0,5.8-8.9,40-18.8,91.5c10-8.5,19.2-19.4,26.6-34.4c1.3-2.5,3.1-4,4.5-4
	c0.7,0,1.1,0.4,1.1,1.8c0,0.9-0.2,2.5-1.1,4.5c-9.2,21.7-21.4,35.7-34.2,46c-11.4,51.6-26.6,70.8-44.7,70.8
	C333.3,301.3,327,300,325.2,296.8z M356.1,252c0.4-1.8,0.9-3.3,1.1-5.1c-15.6,9.6-33.5,19.6-33.5,36.6c0,4.9,1.6,7.6,4.9,9.6
	C338,293.9,348,286.6,356.1,252z M382.8,90.1c0-9.4,7.8-20.5,20.1-20.5c9.2,0,13,5.8,13,12.5c0,9.4-7.6,20.5-19.4,20.5
	c-1.1,0-2.5,0-3.6-0.2C386,101.2,382.8,96.1,382.8,90.1z"/>
<path class="st17" d="M469.3,210.2c0,3.4,1.1,5.6,3.1,5.6c4.7,0,11.6-11.8,22.1-33.5c1.1-2.5,2.9-3.8,4-3.8c0.7,0,1.3,0.7,1.3,2.2
	c0,0.9-0.2,2.2-0.9,3.8c-3.1,7.8-17.2,44.4-34.4,44.4c-6.9,0-15.2-3.8-15.2-20.5c0-1.1,0-2.7,0.2-4.2c-7.4,15.2-15.9,24.8-23,24.8
	c-12.1,0-17.2-13-17.2-30.4c0-33.9,19.6-84.4,45.3-84.4c8.9,0,14.5,9.6,15,16.5h1.3c5.6,0,12.3,4.7,12.3,12.9c0,1.1,0,2.2-0.2,3.4
	C477.1,175.4,469.3,199.5,469.3,210.2z M457,167.8l7.1-32.2c0-3.8-0.7-8.5-6-8.5c-15,0-28.6,52.2-28.6,75.7c0,6.7,1.1,10.9,3.8,10.9
	C441.6,213.8,451.4,192.6,457,167.8z"/>
<path class="st17" d="M497.8,228.7c-4.5,0-9.2-2.9-9.2-8.7c0-7.6,8.9-60.3,19-94.2c1.1-4,4.7-5.8,8.3-5.8c5.4,0,10.9,3.8,10.9,10.3
	c0,1.1,0,2.2-2.5,10.7c7.4-15.2,16.3-25.7,26.8-25.7c19.4,0,17.9,18.1,14.7,31.9c7.6-18.3,17.2-31.9,27.7-31.9
	c13.2,0,16.5,10.5,16.5,18.8c0,24.8-19,65-19,79.7c0,3.6,0.9,5.6,3.8,5.6c9.6,0,23-32.4,25.5-37.1c1.1-2.5,2.7-3.8,3.8-3.8
	c0.9,0,1.6,0.9,1.6,2.5c0,0.9-0.2,2-0.9,3.6c-3.1,7.8-15,45.1-34.4,45.1c-8.9,0-17.4-6.3-17.4-19.6c0-19.4,17.6-60.7,17.6-75.5
	c0-3.3-0.9-5.4-3.1-5.4c-5.8,0-20.1,22.3-29.7,58.5c-2.2,10.5-4.9,22.1-7.6,35.1c-0.9,4-4.9,6.3-9.2,6.3c-5.1,0-10.5-3.3-10.5-10.5
	c0-9.6,15.4-61.8,15.4-81.1c0-4.9-1.1-8-3.6-8c-10.3,0-28.1,44.4-35.7,92.9C506.1,226.5,502.1,228.7,497.8,228.7z"/>
<path class="st17" d="M636.7,206.9c0,4.7,1.1,7.4,4,7.4c8.3,0,20.5-27,23-31.9c1.3-2.5,2.7-3.8,3.8-3.8c0.9,0,1.6,0.9,1.6,2.2
	c0,1.1-0.2,2.2-0.9,3.8c-3.1,7.8-16.1,44.4-34.8,44.4c-8.7,0-16.1-6.3-16.1-23c0-13.4,8.5-54.7,17.4-87.5c1.1-3.8,4.7-5.8,8.9-5.8
	c5.6,0,11.6,3.8,11.6,11.4C655.2,135.9,636.7,189.7,636.7,206.9z M637.1,91.6c0-9.6,7.8-22.1,20.1-22.1c9.2,0,13.2,5.4,13.2,11.6
	c0,9.4-9.2,21.2-23.2,21.2C640.3,102.4,637.1,97.4,637.1,91.6z"/>
<path class="st17" d="M732.2,138.5c0,21.4-16.1,51.6-39.7,51.6c-2.7,0-5.6-0.4-8.5-1.3c0,9.8,0.9,26.8,14.7,26.8
	c21.2,0,32.6-24.1,38.4-33.3c1.3-2.2,2.5-3.1,3.6-3.1c0.9,0,1.6,0.9,1.6,2.2c0,0.9-0.2,2-0.7,3.1c-10,25-25.7,44.7-51.4,44.7
	c-19.2,0-27-17.4-27-38.6c0-33.3,19.2-76.4,42.6-76.4c4.9,0,10,1.6,12.7,3.8C728,119.1,732.2,127.6,732.2,138.5z M686.2,183
	c13.2,0,32.2-35.3,32.2-52.7c0-3.6-0.4-7.4-3.8-7.4c-12.7,0-27.5,33-30.1,59.8C685.1,183,685.6,183,686.2,183z"/>
<path class="st17" d="M838.5,64.4c5.8,3.4,9.8,7.6,9.8,22.6c0,30.8-17,88.6-44,86c-1.8,11.4-2.9,21.4-2.9,28.4
	c0,9.6,2.7,14.1,8.9,14.1c11.8,0,25.7-17.4,33.5-33c1.1-2.5,2.5-3.3,3.6-3.3c0.9,0,1.6,0.9,1.6,2.5c0,0.9-0.2,1.8-0.7,3.1
	c-6.9,17.2-26.1,45.1-45.3,45.1c-15.2,0-20.3-13.6-20.3-33.7c0-12.7,2-28.1,5.1-44.2c8.3-44.7,21.4-91.8,41.8-91.8
	C833.6,59.9,836.9,62.2,838.5,64.4z M805.2,167.6c18.1-14.7,30.6-63,30.6-89.1c0-3.6-0.2-6.9-0.7-9.6
	C827.1,71.3,812.2,126.7,805.2,167.6z"/>
<path class="st17" d="M912.8,137.9c0,21.7-15.9,57.2-47.1,52.7c-0.7,0-1.1,0-1.8,0c0,14.5,3.6,25.9,14.7,25.9
	c19.4,0,32.6-22.6,37.7-32.8c2.2-32.6,20.5-70.8,42.6-70.8c4.9,0,10,1.6,12.7,3.8c9.4,1.1,13.4,10.3,13.4,22.1
	c0,22.8-15.6,54.9-38.6,54.9c-3.1,0-6.5-0.7-9.8-2c0.2,13.6,4.2,23.9,14.7,23.9c26.1,0,38-36.4,42-36.4c0.9,0,1.6,0.9,1.6,2.2
	c0,0.9-0.2,2-0.7,3.1c-10,25-25.7,44.7-51.4,44.7c-17.4,0-25.5-14.5-26.6-33.3c-10,19.6-24.6,34.2-46.2,34.2
	c-19.2,0-27-17.4-27-38.9c0-33.7,19.2-77,42.6-77c4.9,0,10,1.6,12.7,3.8C908.4,119.1,912.8,127.4,912.8,137.9z M899,132.3
	c0-4.5-0.7-9.4-4.5-9.4c-13,0-28.1,35.3-30.4,62.3C882.5,182.7,899,150.1,899,132.3z M972,130.3c0-4.5-0.7-8.7-4.2-8.7
	c-13.2,0-28.6,36.2-30.6,63.6C953.7,187.4,972,149.3,972,130.3z"/>
<path class="st8" d="M1050.6,114.4c2.7-10,5.4-19.6,8.3-28.8c1.1-3.8,4.9-5.6,9.2-5.6c5.6,0,11.6,3.6,11.6,11.2
	c0,5.6-3.3,15.4-5.8,24.3c10.9,0.9,21.2,1.6,21.2,4.7c0,3.1-8.3,5.4-24.6,7.1c-8.5,29.5-19,64.1-19,80.2c0,5.8,1.3,9.4,4.7,9.4
	c8.7,0,20.1-24.6,26.3-34.6c1.6-2.7,2.7-4,3.8-4c0.9,0,1.6,0.9,1.6,2.5c0,0.9-0.2,2.2-0.9,3.8c-3.1,7.8-18.5,44.4-37.3,44.4
	c-8.7,0-16.1-6.3-16.1-23c0-14.7,5.6-46.2,13.4-78.1l-7.1-0.7c-2.7-0.2-3.8-3.1-3.8-6c0-3.3,1.6-6.9,4-6.9
	C1043.4,114.2,1047,114.2,1050.6,114.4z"/>
<path class="st8" d="M1136.5,212c0,3.6,1.1,5.6,4,5.6c7.4,0,14.7-17.2,24.1-35.3c1.1-2.2,2.9-3.8,4-3.8c0.9,0,1.3,0.7,1.3,2
	c0,0.9-0.2,2.2-0.9,4c-3.1,8-14.3,45.1-33.7,45.1c-8.9,0-17.4-6.3-17.4-19.6c0-19.4,17.6-60.7,17.6-75.5c0-3.3-0.9-5.4-3.1-5.4
	c-6.5,0-24.1,26.3-33.7,67.9c-5.1,24.1-4.5,32.6-13.4,32.6c-4.2,0-8.5-3.1-8.5-9.8c0-14.5,15.6-93.8,30.8-144.9
	c1.1-4,4.7-5.8,8.7-5.8c5.4,0,11.2,3.6,11.2,9.4c0,7.1-6.3,19.6-17.2,67.4c8-17.6,17.9-30.6,28.1-30.6c13.2,0,16.5,10.5,16.5,18.8
	C1155.1,158.9,1136.5,197.5,1136.5,212z"/>
<path class="st8" d="M1222.5,202.8c-8.7,15.4-20.5,26.3-33.3,26.3c-17.9,0-25.2-16.7-25.2-37.3c0-16.5,4.2-32.6,10-44.9
	c1.8-4,5.6-9.4,11.2-8.5c4.2-14.1,13.4-24.8,27.5-24.8c17.9,0,25.2,15.2,25.2,34.4c0,15.4-4.5,33.3-11.8,48.2
	c8-0.2,16.5-4,21.9-14.1c1.3-2.2,2.5-3.8,4-3.8c0.7,0,1.3,0.4,1.3,1.6c0,0.9-0.2,2.2-0.9,4C1249.5,192.3,1237.7,202.8,1222.5,202.8z
	 M1207.5,200.6c-11.8-4-18.5-13.2-22.1-23.9c-1.6,7.1-2.5,14.5-2.5,21c0,11.8,2.9,20.8,10.3,20.8c0.7,0,1.3,0,2-0.2
	C1199.5,217.6,1203.7,210.7,1207.5,200.6z M1195.7,160.2c0,13.2,4,26.3,14.5,32.6c4.9-15.9,8.5-35.9,8.5-50.5
	c0-11.6-2-20.1-7.4-20.1C1203.7,122.2,1195.7,140.8,1195.7,160.2z"/>
<path class="st8" d="M1251.3,228.7c-4.5,0-9.2-2.9-9.2-8.7c0-7.6,8.9-60.3,19-94.2c1.1-4,4.7-5.8,8.3-5.8c5.4,0,10.9,3.8,10.9,10.3
	c0,1.1,0,2.2-2.5,10.7c7.4-15.2,16.3-25.7,26.8-25.7c19.4,0,17.9,18.1,14.7,31.9c7.6-18.3,17.2-31.9,27.7-31.9
	c13.2,0,16.5,10.5,16.5,18.8c0,24.8-19,65-19,79.7c0,3.6,0.9,5.6,3.8,5.6c9.6,0,23-32.4,25.5-37.1c1.1-2.5,2.7-3.8,3.8-3.8
	c0.9,0,1.6,0.9,1.6,2.5c0,0.9-0.2,2-0.9,3.6c-3.1,7.8-15,45.1-34.4,45.1c-8.9,0-17.4-6.3-17.4-19.6c0-19.4,17.6-60.7,17.6-75.5
	c0-3.3-0.9-5.4-3.1-5.4c-5.8,0-20.1,22.3-29.7,58.5c-2.2,10.5-4.9,22.1-7.6,35.1c-0.9,4-4.9,6.3-9.2,6.3c-5.1,0-10.5-3.3-10.5-10.5
	c0-9.6,15.4-61.8,15.4-81.1c0-4.9-1.1-8-3.6-8c-10.3,0-28.1,44.4-35.7,92.9C1259.5,226.5,1255.5,228.7,1251.3,228.7z"/>
<path class="st8" d="M1432.3,210.2c0,3.4,1.1,5.6,3.1,5.6c4.7,0,11.6-11.8,22.1-33.5c1.1-2.5,2.9-3.8,4-3.8c0.7,0,1.3,0.7,1.3,2.2
	c0,0.9-0.2,2.2-0.9,3.8c-3.1,7.8-17.2,44.4-34.4,44.4c-6.9,0-15.2-3.8-15.2-20.5c0-1.1,0-2.7,0.2-4.2c-7.4,15.2-15.9,24.8-23,24.8
	c-12.1,0-17.2-13-17.2-30.4c0-33.9,19.6-84.4,45.3-84.4c8.9,0,14.5,9.6,15,16.5h1.3c5.6,0,12.3,4.7,12.3,12.9c0,1.1,0,2.2-0.2,3.4
	C1440.2,175.4,1432.3,199.5,1432.3,210.2z M1420.1,167.8l7.1-32.2c0-3.8-0.7-8.5-6-8.5c-15,0-28.6,52.2-28.6,75.7
	c0,6.7,1.1,10.9,3.8,10.9C1404.7,213.8,1414.5,192.6,1420.1,167.8z"/>
<path class="st8" d="M1481.5,135.4c-2.2-6-3.4-12.1-3.4-17.9c0-15,6.9-27,15.4-27c5.4,0,8.3,3.8,8.3,10c0,8.3-4.7,21.2-14.1,36.2
	c4.9,16.1,17.2,38.2,17.2,56c0,18.1-9.2,36.4-31.9,36.4c-25,0-33.7-12.7-33.7-23.4c0-7.8,4.5-15.6,12.5-14.3
	C1462.9,174.5,1475,149.3,1481.5,135.4z M1457.3,194.6c2.5,2.7,2.2,6.9,2.2,18.1c0,7.4,2.5,11.4,7.8,11.4c7.4,0,16.3-7.6,16.3-35.7
	c0-7.6-0.9-22.8-1.6-36.4C1475,168.5,1464,184.8,1457.3,194.6z"/>
<g>
	<path class="st17" d="M1033.6,252.6c0-8,3.3-12.2,10-12.2c6.6,0,10,4.2,10,12.2v1.1h-2.2v-1.1c0-4.5-1.1-7.1-2.6-8.4
		c-1.5-1.4-3.5-1.7-5.1-1.7c-1.7,0-3.6,0.3-5.1,1.7c-1.5,1.4-2.7,3.9-2.7,8.4v22.1c0,6.9,2.6,10.2,7.8,10.2c5.2,0,7.7-3.3,7.7-10.2
		v-6.1h-10.1v-2.2h12.3v8.3c0,8-3.3,12.3-10,12.3c-6.6,0-10-4.4-10-12.3V252.6z"/>
	<path class="st17" d="M1077.3,287h-2.2V274c0-5.6-3.2-8.9-8.7-8.9h-6.2V287h-2.1v-46.6h9.8c7.5,0,10.1,3.9,10.1,12.4
		c0,4.1-0.8,7.3-2.6,9.3c-0.8,0.9-2.4,1.6-3.5,2.1c0.9,0.4,1.7,1,2.4,1.7c2.1,2,3.1,4.7,3.1,8.2V287z M1060.1,263h6.2
		c6.2,0,9.3-3,9.3-10.2c0-7.3-1.8-10.2-8-10.2h-7.6V263z"/>
	<path class="st17" d="M1099.7,272.8h-12.3l-3.2,14.3h-2.2l3.7-16.2v-0.2l7.1-30.2h1.7l10.7,46.6h-2.2L1099.7,272.8z M1087.9,270.6
		h11.3l-5.7-24.4L1087.9,270.6z"/>
	<path class="st17" d="M1111.3,264.7V287h-2.1v-46.6h8.4c7.5,0,10.9,4.1,10.9,12.2c0,8.1-3.4,12.2-10.9,12.2H1111.3z M1111.3,242.5
		v20.1h6.2c6.1,0,8.6-3,8.6-10c0-7.2-2.5-10-8.6-10H1111.3z"/>
	<path class="st17" d="M1148.9,262.7v-22.3h2.2V287h-2.2v-22.2h-14.1V287h-2.2v-46.6h2.2v22.3H1148.9z"/>
	<path class="st17" d="M1158.7,287h-2.1v-46.6h2.1V287z"/>
	<path class="st17" d="M1163.8,252.7c0-5.1,1.3-8.2,3.3-10c1.9-1.8,4.4-2.3,6.7-2.3c2.2,0,4.7,0.5,6.6,2.3c1.9,1.8,3.3,5,3.3,10v1.1
		h-2.2v-1.1c0-7.1-2.7-10.2-7.7-10.2c-5.1,0-7.7,3-7.7,10.2v21.9c0,7.1,2.6,10.2,7.7,10.2c2.5,0,4.4-0.8,5.7-2.4
		c1.3-1.7,1.9-4.3,1.9-7.8v-1.1h2.2v1.1c0,5.2-1.3,8.2-3.3,10c-1.9,1.9-4.4,2.4-6.6,2.4c-2.3,0-4.8-0.5-6.7-2.4
		c-1.9-1.9-3.3-4.8-3.3-10V252.7z"/>
	<path class="st17" d="M1222.4,277.5c1.3-3.5,1.4-7.5,1.4-10.4v-0.7h2.2v0.7c0,3.5-0.2,8.5-2.1,12.7v0.1c-0.1,0-0.1,0-0.1,0.1
		l4.1,7.1h-2.5l-2.9-5c-2.4,3.3-5.9,5-10.6,5c-6.4,0-10.4-4.9-10.4-11.5c0-3,0.8-5.3,2.1-7.1c1.9-2.8,4.6-4.8,7-6.8
		c-4.9-8.2-7.5-21.2,2-21.2c10.3,0,8.1,16.7,0.9,21.8L1222.4,277.5z M1211.7,263.6c-1.8,1.4-4.7,3.6-6.3,6c-1.1,1.5-1.7,3.4-1.7,5.9
		c0,2.3,0.6,4.7,2,6.4c1.4,1.7,3.5,2.9,6.3,2.9c4.3,0,7.4-1.7,9.3-4.9L1211.7,263.6z M1213.9,258.9c4.2-5.5,5.9-16.3-1.2-16.3
		c-7.7,0-2.4,14.9-0.3,17.8C1212.3,260.4,1213.3,259.6,1213.9,258.9z"/>
	<path class="st17" d="M1269.6,280.9l6-40.5h2.3l-7.4,46.6h-1.8l-6.8-40.5L1255,287h-1.7l-7.5-46.6h2.2l6.2,40.5l6.8-40.5h1.7
		L1269.6,280.9z"/>
	<path class="st17" d="M1296.9,240.4v2.1h-14.6v20.1h12.5v2.1h-12.5v20.1h14.6v2.1h-16.7v-46.6H1296.9z"/>
	<path class="st17" d="M1301.6,287v-46.6h7.7c7.1,0,10.3,4.1,10.3,12.2c0,4-0.8,7.1-2.4,9.1c-0.8,0.9-1.5,1.5-2.6,2.1
		c1,0.5,1.8,1.1,2.6,2c1.6,2,2.4,5.1,2.4,9.1c0,8.1-3.2,12.2-10.3,12.2H1301.6z M1303.8,242.5v20.1h5.5c5.7,0,8.1-2.9,8.1-10
		c0-7.2-2.3-10-8.1-10H1303.8z M1303.8,264.7v20.1h5.5c5.8,0,8.1-2.8,8.1-10s-2.4-10.1-8.1-10.1H1303.8z"/>
	<path class="st17" d="M1339,287v-46.6h8c7.4,0,10.8,4.3,10.8,12.6v21.4c0,8.3-3.4,12.6-10.8,12.6H1339z M1341.2,242.5v42.3h5.8
		c6,0,8.6-3.3,8.6-10.4V253c0-7.2-2.6-10.4-8.6-10.4H1341.2z"/>
	<path class="st17" d="M1379.7,240.4v2.1h-14.6v20.1h12.5v2.1h-12.5v20.1h14.6v2.1h-16.7v-46.6H1379.7z"/>
	<path class="st17" d="M1381.7,273.6h2.1v1c0,4.6,1.2,7.1,2.7,8.5c1.5,1.4,3.5,1.7,5.1,1.7c5,0,7.8-2.1,7.8-8.2
		c0-10.4-17.8-13.2-17.8-25.3c0-7,3.6-11,10-11c6.6,0,10,4.4,10,12.4v1.1h-2.2v-1.1c0-7-2.6-10.2-7.8-10.2c-5,0-7.8,2.6-7.8,8.6
		c0,11.1,17.8,13.3,17.8,25.2c0,6.9-3.6,10.6-10,10.6c-6.6,0-10-4.1-10-12.3V273.6z"/>
	<path class="st17" d="M1408.1,287h-2.1v-46.6h2.1V287z"/>
	<path class="st17" d="M1413.3,252.6c0-8,3.3-12.2,10-12.2c6.6,0,10,4.2,10,12.2v1.1h-2.2v-1.1c0-4.5-1.1-7.1-2.6-8.4
		c-1.5-1.4-3.5-1.7-5.1-1.7s-3.6,0.3-5.1,1.7c-1.5,1.4-2.7,3.9-2.7,8.4v22.1c0,6.9,2.6,10.2,7.8,10.2c5.2,0,7.7-3.3,7.7-10.2v-6.1
		h-10.1v-2.2h12.3v8.3c0,8-3.3,12.3-10,12.3c-6.6,0-10-4.4-10-12.3V252.6z"/>
	<path class="st17" d="M1455.9,287l-16.1-39.9V287h-2.2v-46.6h1.9l16,39.9v-39.9h2.2V287H1455.9z"/>
	<path class="st17" d="M1479.3,240.4v2.1h-14.6v20.1h12.5v2.1h-12.5v20.1h14.6v2.1h-16.7v-46.6H1479.3z"/>
	<path class="st17" d="M1502.9,287h-2.2V274c0-5.6-3.2-8.9-8.7-8.9h-6.2V287h-2.1v-46.6h9.8c7.5,0,10.1,3.9,10.1,12.4
		c0,4.1-0.8,7.3-2.6,9.3c-0.8,0.9-2.4,1.6-3.5,2.1c0.9,0.4,1.7,1,2.4,1.7c2.1,2,3.1,4.7,3.1,8.2V287z M1485.7,263h6.2
		c6.2,0,9.3-3,9.3-10.2c0-7.3-1.8-10.2-8-10.2h-7.6V263z"/>
</g>
</svg>
